<mxfile host="app.diagrams.net" modified="2024-04-15T10:31:25.250Z" agent="Mozilla/5.0 (Windows NT 10.0; Win64; x64) AppleWebKit/537.36 (KHTML, like Gecko) Chrome/123.0.0.0 Safari/537.36" version="24.1.0" etag="RLcCo6Z-I-BR8WcaihFt" type="github">
  <diagram name="Strona-1" id="91CV94bHE18N9bor837x">
    <mxGraphModel>
      <root>
        <mxCell id="0" />
        <mxCell id="1" parent="0" />
      </root>
    </mxGraphModel>
  </diagram>
</mxfile>
